# Blender v3.1.2 OBJ File: 'ModelyKamenov.blend'
# www.blender.org
mtllib 2.mtl
o 2
v -0.115251 -0.064679 -0.038165
v -0.130389 -0.134099 0.033786
v -0.130389 -0.134099 0.033786
v -0.130389 -0.134099 0.033786
v -0.058791 -0.147719 0.016585
v -0.058791 -0.147719 0.016585
v -0.058791 -0.147719 0.016585
v 0.055023 -0.142466 -0.010190
v 0.055023 -0.142466 -0.010190
v 0.055023 -0.142466 -0.010190
v 0.055023 -0.142466 -0.010190
v 0.114158 -0.075703 -0.036831
v 0.120072 -0.041414 -0.070658
v -0.076839 -0.067915 -0.049660
v -0.076712 -0.003269 -0.092428
v 0.156095 -0.111175 0.038088
v 0.156095 -0.111175 0.038088
v 0.013263 -0.175127 0.054180
v 0.013263 -0.175127 0.054180
v 0.013263 -0.175127 0.054180
v -0.022348 -0.106894 -0.031620
v -0.142845 0.021974 -0.105408
v -0.142845 0.021974 -0.105408
v 0.008652 -0.046129 -0.086104
v 0.057794 -0.068582 -0.041028
v 0.026029 0.052150 -0.157088
v 0.026029 0.052150 -0.157088
v 0.073169 -0.108333 -0.030387
v 0.062988 -0.028921 -0.069363
v 0.089379 -0.032736 -0.071762
v 0.033636 -0.102205 -0.010233
v 0.137856 -0.087402 0.004103
v 0.111640 -0.008629 -0.084506
v 0.106180 0.037363 -0.158608
v 0.106180 0.037363 -0.158608
v 0.156680 -0.077560 -0.025501
v 0.176929 0.026388 -0.100025
v -0.098414 -0.102710 -0.016230
v -0.098414 -0.102710 -0.016230
v 0.100534 -0.136124 0.061063
v 0.100534 -0.136124 0.061063
v 0.100534 -0.136124 0.061063
v 0.045166 -0.009035 -0.117099
v -0.026437 -0.004544 -0.118855
v 0.003689 -0.178053 0.026366
v 0.003689 -0.178053 0.026366
v 0.003689 -0.178053 0.026366
v -0.121823 0.114983 -0.106057
v -0.121823 0.114983 -0.106057
v 0.015831 -0.135106 -0.012285
v 0.015831 -0.135106 -0.012285
v -0.028292 0.064605 -0.165108
v -0.028292 0.064605 -0.165108
v -0.028292 0.064605 -0.165108
v -0.153465 0.040135 0.041639
v -0.153465 0.040135 0.041639
v -0.026140 -0.063639 0.115062
v 0.106958 0.105559 -0.011675
v -0.059211 -0.159670 0.054524
v -0.059211 -0.159670 0.054524
v 0.250970 -0.019951 -0.069974
v 0.250970 -0.019951 -0.069974
v 0.250970 -0.019951 -0.069974
v 0.156503 0.021774 0.093717
v 0.217508 0.042884 0.039183
v 0.217508 0.042884 0.039183
v 0.217508 0.042884 0.039183
v -0.073418 -0.043694 -0.065708
v -0.073418 -0.043694 -0.065708
v 0.037062 0.122555 0.078617
v 0.037062 0.122555 0.078617
v -0.063498 0.119096 -0.079311
v 0.171689 0.087328 -0.071257
v 0.079427 0.050784 -0.163595
v 0.079427 0.050784 -0.163595
v -0.151437 0.075871 0.140642
v -0.151437 0.075871 0.140642
v -0.146160 -0.056608 -0.041161
v -0.146160 -0.056608 -0.041161
v -0.146160 -0.056608 -0.041161
v 0.032695 0.122354 0.038646
v -0.164928 -0.108899 0.012673
v -0.164928 -0.108899 0.012673
v 0.196357 -0.092725 -0.002256
v 0.196357 -0.092725 -0.002256
v 0.196357 -0.092725 -0.002256
v -0.175849 -0.037887 -0.032791
v -0.175849 -0.037887 -0.032791
v -0.155208 0.049528 -0.066517
v 0.170780 0.112385 0.027584
v 0.170780 0.112385 0.027584
v -0.132655 0.109807 0.142614
v -0.159903 -0.027048 0.082782
v -0.140791 0.074075 0.045279
v -0.115428 0.153999 0.022765
v -0.115428 0.153999 0.022765
v -0.115428 0.153999 0.022765
v -0.058037 0.145586 -0.012907
v -0.058037 0.145586 -0.012907
v -0.058037 0.145586 -0.012907
v -0.058037 0.145586 -0.012907
v -0.058037 0.145586 -0.012907
v -0.187511 -0.047797 0.010071
v -0.187511 -0.047797 0.010071
v -0.112701 0.134706 -0.047110
v -0.112701 0.134706 -0.047110
v -0.141844 0.104651 -0.051342
v -0.141844 0.104651 -0.051342
v -0.118837 0.071554 -0.139336
v -0.118837 0.071554 -0.139336
v -0.118837 0.071554 -0.139336
v -0.118837 0.071554 -0.139336
v -0.017921 0.126512 0.046723
v -0.017921 0.126512 0.046723
v -0.017921 0.126512 0.046723
v -0.146511 0.094587 -0.002547
v -0.146511 0.094587 -0.002547
v -0.146511 0.094587 -0.002547
v -0.135853 -0.067143 0.098415
v -0.135853 -0.067143 0.098415
v -0.135853 -0.067143 0.098415
v 0.254191 -0.007407 -0.044028
v 0.254191 -0.007407 -0.044028
v 0.254191 -0.007407 -0.044028
v 0.254191 -0.007407 -0.044028
v -0.170232 -0.079193 0.040705
v -0.166560 0.030074 -0.034597
v -0.159083 0.027098 -0.090022
v -0.159083 0.027098 -0.090022
v -0.171706 -0.009804 0.018260
v -0.171706 -0.009804 0.018260
v 0.084527 0.037257 0.117688
v 0.254797 -0.050576 -0.015357
v 0.254797 -0.050576 -0.015357
v -0.105529 -0.086238 0.100695
v -0.105529 -0.086238 0.100695
v -0.108064 0.030340 0.138195
v -0.108064 0.030340 0.138195
v -0.013810 -0.094322 0.097995
v -0.013810 -0.094322 0.097995
v -0.039102 -0.160150 0.071880
v -0.039102 -0.160150 0.071880
v -0.006450 -0.018534 0.116923
v -0.140730 -0.015394 0.112279
v -0.140730 -0.015394 0.112279
v -0.140730 -0.015394 0.112279
v -0.149375 0.024298 0.132631
v -0.149375 0.024298 0.132631
v -0.149375 0.024298 0.132631
v 0.188136 -0.089546 0.050684
v -0.072340 0.135749 0.020116
v -0.072340 0.135749 0.020116
v -0.025299 -0.173356 0.059829
v -0.025299 -0.173356 0.059829
v -0.025299 -0.173356 0.059829
v -0.042771 0.125815 0.140324
v -0.042771 0.125815 0.140324
v -0.042771 0.125815 0.140324
v 0.060412 0.097670 -0.010536
v 0.060412 0.097670 -0.010536
v 0.233528 -0.070648 0.021835
v 0.098014 0.094718 0.114700
v 0.098014 0.094718 0.114700
v 0.094430 -0.115894 -0.015874
v 0.106958 0.105559 -0.011675
v 0.106958 0.105559 -0.011675
v 0.106958 0.105559 -0.011675
v 0.231721 0.038350 -0.040264
v 0.231721 0.038350 -0.040264
v 0.231721 0.038350 -0.040264
v 0.151806 0.101417 0.082815
v 0.151806 0.101417 0.082815
v 0.214347 0.003215 0.055365
v -0.091942 0.040468 -0.136653
v -0.113397 0.154253 0.115941
v -0.113397 0.154253 0.115941
v -0.113397 0.154253 0.115941
v -0.113397 0.154253 0.115941
v -0.018246 0.092901 -0.111191
v 0.046433 0.091666 -0.074458
v 0.095815 0.081033 -0.129018
v 0.057792 0.106359 -0.023774
v 0.057792 0.106359 -0.023774
v 0.131165 0.065338 -0.147005
v 0.088450 -0.085879 -0.055220
v 0.057176 0.006257 0.116731
v 0.192646 0.039434 -0.113991
v 0.192646 0.039434 -0.113991
v 0.200952 0.081142 -0.029903
v 0.200952 0.081142 -0.029903
v -0.059211 -0.159670 0.054524
v -0.059211 -0.159670 0.054524
vn -0.4702 -0.2507 -0.8462
vn -0.9494 0.2882 0.1250
vn -0.2888 -0.7169 -0.6345
vn -0.0300 0.7329 -0.6797
vn -0.4440 -0.6425 0.6245
vn 0.0703 0.9727 -0.2213
vn 0.5148 -0.8182 -0.2560
vn -0.0481 -0.5535 -0.8315
vn -0.2167 -0.5505 -0.8062
vn 0.8409 0.4390 -0.3166
vn 0.1803 -0.4218 0.8886
vn -0.1553 -0.6928 -0.7042
vn -0.1085 -0.5384 -0.8357
vn -0.9983 -0.0456 0.0369
vn 0.7427 0.5605 0.3664
vn -0.0247 0.9634 -0.2670
vn 0.3018 -0.9159 -0.2648
vn 0.3220 0.8195 0.4741
vn -0.2111 -0.5906 -0.7788
vn -0.1118 -0.6603 -0.7426
vn 0.8937 0.4277 0.1355
vn -0.0311 -0.5784 -0.8152
vn -0.1659 -0.6779 -0.7162
vn -0.6644 -0.5464 0.5099
vn 0.0767 0.9753 -0.2070
vn 0.5145 -0.0601 0.8554
vn 0.2124 0.9724 -0.0968
vn 0.2660 -0.7152 -0.6463
vn -0.2268 -0.6519 -0.7236
vn 0.3251 -0.5920 -0.7374
vn -0.6987 -0.3628 -0.6166
vn -0.9433 0.2344 0.2352
vn -0.5414 -0.3223 -0.7766
vn -0.8678 0.4711 0.1584
vn 0.5061 -0.2549 0.8239
vn -0.9816 0.1305 -0.1394
vn -0.1643 -0.9308 -0.3264
vn 0.6223 -0.5797 -0.5260
vn 0.4012 -0.5667 -0.7197
vn 0.3769 0.8303 0.4106
vn 0.1088 -0.0965 0.9894
vn -0.9113 0.3245 0.2534
vn -0.1919 -0.7714 -0.6068
vn 0.3236 -0.5575 -0.7645
vn 0.3331 -0.6623 -0.6711
vn -0.1160 -0.6498 -0.7512
vn -0.8547 0.3711 -0.3630
vn -0.0090 -0.3911 -0.9203
vn -0.0742 0.5366 0.8406
vn 0.2593 0.1632 -0.9519
vn 0.3953 -0.7861 -0.4751
vn -0.1141 -0.6991 -0.7059
vn -0.3723 -0.3946 -0.8401
vn -0.9683 0.2463 -0.0418
vn 0.4589 -0.0418 -0.8875
vn -0.1093 -0.1569 0.9816
vn 0.4778 -0.8459 0.2370
vn -0.8966 0.3580 0.2608
vn -0.9008 0.4072 -0.1509
vn 0.0590 0.0303 -0.9978
vn 0.2629 0.8333 -0.4863
vn 0.2103 0.9030 -0.3747
vn 0.0192 -0.0354 0.9992
vn -0.0519 -0.5161 -0.8550
vn -0.4159 -0.7844 0.4602
vn 0.2760 0.9048 -0.3242
vn 0.5497 -0.7593 -0.3483
vn 0.2510 0.8918 -0.3764
vn -0.0204 -0.6292 -0.7770
vn -0.9908 0.1356 0.0058
vn 0.4489 -0.7656 -0.4608
vn 0.0525 -0.3048 0.9510
vn -0.1896 0.0423 0.9810
vn -0.0007 0.7528 -0.6582
vn -0.3278 -0.7396 -0.5879
vn -0.5179 -0.5163 -0.6821
vn -0.2820 -0.3220 -0.9038
vn 0.1264 -0.4398 0.8892
vn 0.0856 -0.6213 0.7789
vn -0.8972 0.4412 0.0184
vn -0.6894 -0.5584 0.4613
vn -0.9632 0.2324 0.1348
vn 0.1599 0.8619 -0.4812
vn -0.3947 -0.8094 0.4349
vn -0.9558 0.2718 -0.1118
vn -0.9300 0.3480 -0.1187
vn -0.2579 -0.6847 -0.6816
vn -0.9165 0.3160 0.2451
vn 0.3872 -0.9179 0.0874
vn 0.8195 0.5615 0.1146
vn 0.9938 -0.0515 -0.0985
vn -0.0586 0.7649 -0.6414
vn -0.0809 0.9620 -0.2607
vn -0.2866 -0.5007 -0.8168
vn -0.1557 0.8449 -0.5118
vn -0.3087 -0.0652 -0.9489
vn -0.0510 -0.4022 0.9141
vn -0.3831 -0.8798 -0.2814
vn -0.1292 -0.5613 -0.8174
vn 0.1798 -0.4217 0.8887
vn 0.5229 -0.8475 -0.0908
vn -0.9883 0.1365 0.0682
vn -0.2179 -0.5466 -0.8085
vn -0.1786 0.5907 -0.7869
vn 0.6031 -0.4645 -0.6485
vn 0.4743 -0.8774 0.0721
vn -0.2516 -0.6489 -0.7180
vn 0.1095 -0.1271 0.9858
vn 0.5843 -0.2047 0.7853
vn 0.2463 -0.2878 0.9255
vn 0.1216 -0.7235 -0.6795
vn -0.1249 -0.9150 -0.3837
vn -0.2793 -0.5695 -0.7731
vn 0.0472 0.9684 -0.2451
vn 0.1476 0.8879 0.4356
vn 0.8645 -0.4776 0.1567
vn 0.1825 0.9822 -0.0436
vn -0.8844 -0.3404 -0.3193
vn -0.8203 -0.3028 0.4852
vn -0.1843 0.9742 0.1302
vn 0.8146 0.5676 0.1191
vn 0.6260 -0.2417 -0.7414
vn 0.2958 -0.5980 -0.7449
vn -0.7037 -0.1364 -0.6973
vn 0.1809 0.0087 0.9835
vn -0.2415 -0.2723 0.9314
vn 0.2594 -0.2821 0.9236
vn -0.9625 0.2572 -0.0868
vn 0.5904 0.2641 0.7627
vn 0.2030 0.9788 -0.0271
vn 0.5934 0.2563 0.7630
vn 0.1129 -0.4532 -0.8842
vn 0.9353 0.2048 0.2886
vn -0.9390 0.3126 -0.1434
vn 0.8956 0.1050 0.4324
vn -0.4529 -0.5046 -0.7350
vn -0.9272 0.3581 -0.1102
vn -0.8006 -0.2721 0.5338
vn 0.1598 0.8615 -0.4819
vn -0.0828 -0.3068 0.9482
vn -0.1249 0.8179 0.5616
vn 0.0494 0.9263 -0.3736
vn 0.2613 -0.8114 -0.5228
vn -0.2463 -0.9236 -0.2937
vn -0.7211 0.6890 0.0731
vn -0.8399 0.5138 -0.1747
vn 0.5014 -0.1843 0.8454
vn 0.0020 0.8942 -0.4477
vn 0.8681 0.0001 0.4964
vn 0.0924 -0.2296 0.9689
vn 0.2349 0.8931 -0.3836
vn 0.0840 0.9410 -0.3278
vn -0.7014 -0.4402 0.5606
vn -0.1550 -0.5608 -0.8133
vn 0.0396 -0.0798 0.9960
vn -0.0145 -0.5562 -0.8309
vn -0.0825 -0.6537 -0.7523
vn 0.6944 0.5967 -0.4021
vn 0.0797 0.9967 -0.0137
vn 0.3894 0.9210 -0.0110
vn 0.2556 0.9248 0.2818
vn -0.7034 0.6997 -0.1253
vn 0.1890 -0.3071 0.9327
vn 0.5486 0.6774 -0.4901
vn 0.1530 -0.7073 -0.6902
vn 0.8922 -0.0365 0.4502
vn 0.1004 -0.2502 0.9630
vn 0.4791 0.8519 -0.2116
vn 0.0367 -0.9550 -0.2942
vn -0.0819 -0.4056 -0.9104
vn 0.3425 0.9344 0.0979
vn 0.3113 -0.0237 0.9500
vn 0.7841 0.4671 -0.4087
vn -0.9350 0.1729 -0.3095
vn -0.3458 -0.9228 -0.1700
vn 0.4131 -0.8918 -0.1845
vn 0.0848 0.9896 -0.1161
vn 0.3739 0.9264 0.0448
vn 0.0190 0.9559 0.2930
vn 0.6943 0.6239 -0.3588
vn 0.0585 0.9980 0.0230
vn 0.2675 -0.8357 -0.4796
vn -0.9253 -0.3343 0.1792
vn -0.9144 -0.1287 0.3839
vn -0.4494 -0.6391 0.6241
vn 0.4878 -0.8466 0.2129
vn 0.5630 -0.8178 -0.1194
vn 0.2707 -0.2674 0.9248
vn -0.2475 -0.8688 -0.4288
vn 0.3053 -0.7989 -0.5183
vn -0.1332 -0.8443 -0.5191
vn -0.1138 -0.5682 -0.8150
vn -0.5180 -0.2459 -0.8192
vn -0.0020 -0.5475 -0.8368
vn -0.1864 -0.6276 -0.7559
vn -0.0288 -0.9930 0.1144
usemtl None
s off
f 31//1 28//1 11//1
f 55//2 127//2 130//2
f 5//3 3//3 38//3
f 179//4 181//4 27//4
f 136//5 2//5 141//5
f 73//6 182//6 167//6
f 11//7 164//7 40//7
f 15//8 69//8 23//8
f 15//9 24//9 69//9
f 122//10 63//10 170//10
f 141//11 140//11 57//11
f 7//12 21//12 51//12
f 21//13 14//13 69//13
f 149//14 76//14 56//14
f 67//15 90//15 171//15
f 97//16 98//16 105//16
f 40//17 164//17 16//17
f 159//18 183//18 100//18
f 69//19 24//19 21//19
f 187//20 61//20 37//20
f 168//21 65//21 124//21
f 61//22 36//22 37//22
f 13//23 12//23 30//23
f 120//24 126//24 4//24
f 73//25 181//25 182//25
f 171//26 163//26 67//26
f 114//27 151//27 177//27
f 24//28 25//28 21//28
f 14//29 21//29 7//29
f 37//30 36//30 13//30
f 22//31 87//31 128//31
f 56//32 131//32 93//32
f 25//33 185//33 31//33
f 92//34 175//34 77//34
f 143//35 57//35 140//35
f 127//36 129//36 88//36
f 43//37 30//37 29//37
f 12//38 32//38 164//38
f 29//39 25//39 24//39
f 95//40 152//40 101//40
f 137//41 132//41 157//41
f 93//42 131//42 103//42
f 82//43 38//43 3//43
f 28//44 12//44 164//44
f 43//45 33//45 30//45
f 14//46 7//46 39//46
f 129//47 107//47 111//47
f 13//48 33//48 37//48
f 156//49 175//49 92//49
f 75//50 184//50 34//50
f 43//51 29//51 24//51
f 69//52 1//52 80//52
f 110//53 174//53 22//53
f 107//54 89//54 116//54
f 188//55 34//55 184//55
f 138//56 77//56 148//56
f 42//57 17//57 150//57
f 94//58 96//58 118//58
f 130//59 88//59 104//59
f 31//60 11//60 51//60
f 179//61 27//61 54//61
f 73//62 184//62 181//62
f 77//63 138//63 156//63
f 1//64 39//64 80//64
f 60//65 141//65 2//65
f 182//66 180//66 102//66
f 12//67 28//67 185//67
f 102//68 179//68 72//68
f 44//69 43//69 24//69
f 88//70 130//70 127//70
f 62//71 134//71 84//71
f 137//72 136//72 143//72
f 143//73 136//73 57//73
f 75//74 181//74 184//74
f 15//75 44//75 24//75
f 79//76 82//76 88//76
f 53//77 174//77 110//77
f 41//78 139//78 20//78
f 154//79 20//79 142//79
f 96//80 76//80 178//80
f 83//81 4//81 126//81
f 127//82 55//82 116//82
f 179//83 49//83 72//83
f 141//84 60//84 155//84
f 76//85 96//85 94//85
f 116//86 89//86 127//86
f 87//87 22//87 68//87
f 56//88 94//88 118//88
f 53//89 22//89 174//89
f 67//90 169//90 189//90
f 125//91 134//91 62//91
f 75//92 27//92 181//92
f 181//93 180//93 182//93
f 1//94 69//94 14//94
f 81//95 166//95 160//95
f 78//96 87//96 68//96
f 57//97 136//97 141//97
f 6//98 46//98 59//98
f 74//99 35//99 43//99
f 139//100 142//100 20//100
f 19//101 45//101 10//101
f 56//102 93//102 149//102
f 23//103 52//103 44//103
f 49//104 54//104 112//104
f 16//105 164//105 32//105
f 85//106 161//106 17//106
f 82//107 79//107 38//107
f 186//108 132//108 137//108
f 150//109 161//109 173//109
f 132//110 150//110 64//110
f 61//111 86//111 36//111
f 36//112 86//112 32//112
f 39//113 1//113 14//113
f 91//114 73//114 167//114
f 171//115 71//115 163//115
f 51//116 25//116 31//116
f 166//117 70//117 172//117
f 82//118 104//118 88//118
f 149//119 93//119 120//119
f 58//120 171//120 90//120
f 90//121 67//121 189//121
f 30//122 12//122 185//122
f 164//123 11//123 28//123
f 128//124 110//124 22//124
f 157//125 132//125 162//125
f 144//126 121//126 136//126
f 186//127 42//127 150//127
f 107//128 129//128 89//128
f 66//129 64//129 173//129
f 70//130 166//130 81//130
f 64//131 66//131 162//131
f 25//132 51//132 21//132
f 66//133 133//133 123//133
f 127//134 89//134 129//134
f 173//135 133//135 66//135
f 185//136 28//136 31//136
f 94//137 56//137 76//137
f 126//138 120//138 93//138
f 179//139 54//139 49//139
f 135//140 138//140 148//140
f 165//141 183//141 159//141
f 102//142 72//142 106//142
f 33//143 43//143 35//143
f 192//144 3//144 5//144
f 108//145 117//145 105//145
f 105//146 117//146 97//146
f 64//147 150//147 173//147
f 81//148 160//148 115//148
f 161//149 133//149 173//149
f 186//150 137//150 143//150
f 180//151 179//151 102//151
f 72//152 49//152 106//152
f 145//153 135//153 148//153
f 30//154 25//154 29//154
f 92//155 77//155 156//155
f 43//156 44//156 52//156
f 8//157 46//157 50//157
f 190//158 170//158 73//158
f 81//159 115//159 70//159
f 176//160 152//160 95//160
f 163//161 71//161 158//161
f 105//162 48//162 108//162
f 42//163 186//163 140//163
f 184//164 73//164 188//164
f 36//165 12//165 13//165
f 147//166 119//166 146//166
f 140//167 186//167 143//167
f 91//168 190//168 73//168
f 12//169 36//169 32//169
f 33//170 13//170 30//170
f 114//171 177//171 158//171
f 64//172 162//172 132//172
f 63//173 188//173 170//173
f 48//174 109//174 108//174
f 191//175 47//175 153//175
f 41//176 20//176 9//176
f 181//177 179//177 180//177
f 115//178 160//178 99//178
f 101//179 152//179 113//179
f 188//180 73//180 170//180
f 114//181 158//181 71//181
f 37//182 35//182 187//182
f 126//183 103//183 83//183
f 93//184 103//184 126//184
f 136//185 121//185 2//185
f 150//186 17//186 161//186
f 133//187 161//187 85//187
f 186//188 150//188 132//188
f 23//189 44//189 15//189
f 37//190 33//190 35//190
f 32//191 86//191 16//191
f 43//192 26//192 74//192
f 185//193 25//193 30//193
f 26//194 43//194 52//194
f 6//195 50//195 46//195
f 18//196 153//196 47//196
