# Blender v3.1.2 OBJ File: 'Nadoba.blend'
# www.blender.org
mtllib Nadoba.mtl
o Box
v -0.550000 0.000000 0.550000
v -0.500000 0.050000 0.500000
v -0.550000 1.050000 0.550000
v -0.550000 0.000000 -0.550000
v -0.500000 0.050000 -0.500000
v -0.550000 1.050000 -0.550000
v 0.550000 0.000000 0.550000
v 0.500000 0.050000 0.500000
v 0.550000 1.050000 0.550000
v 0.550000 0.000000 -0.550000
v 0.500000 0.050000 -0.500000
v 0.550000 1.050000 -0.550000
v -0.500000 1.050000 0.500000
v 0.500000 1.050000 -0.500000
v -0.500000 1.050000 -0.500000
v 0.500000 1.050000 0.500000
vt 0.375000 0.000000
vt 0.625000 0.000000
vt 0.625000 0.250000
vt 0.375000 0.250000
vt 0.625000 0.500000
vt 0.375000 0.500000
vt 0.625000 0.750000
vt 0.375000 0.750000
vt 0.625000 1.000000
vt 0.375000 1.000000
vt 0.125000 0.500000
vt 0.125000 0.750000
vt 0.875000 0.500000
vt 0.875000 0.750000
vt 0.636364 0.738636
vt 0.863636 0.738636
vt 0.863636 0.511364
vt 0.636364 0.511364
vt 0.625000 0.000000
vt 0.375000 0.000000
vt 0.375000 0.250000
vt 0.625000 0.250000
vt 0.375000 0.500000
vt 0.625000 0.500000
vt 0.375000 0.750000
vt 0.625000 0.750000
vt 0.375000 1.000000
vt 0.625000 1.000000
vt 0.125000 0.500000
vt 0.125000 0.750000
vn -1.0000 0.0000 0.0000
vn 0.0000 0.0000 -1.0000
vn 1.0000 0.0000 0.0000
vn 0.0000 0.0000 1.0000
vn 0.0000 -1.0000 0.0000
vn 0.0000 1.0000 0.0000
usemtl None
s off
f 1/1/1 3/2/1 6/3/1 4/4/1
f 4/4/2 6/3/2 12/5/2 10/6/2
f 10/6/3 12/5/3 9/7/3 7/8/3
f 7/8/4 9/7/4 3/9/4 1/10/4
f 4/11/5 10/6/5 7/8/5 1/12/5
f 6/13/6 3/14/6 9/7/6 16/15/6 13/16/6 15/17/6
f 9/7/6 12/5/6 6/13/6 15/17/6 14/18/6 16/15/6
f 13/19/3 2/20/3 5/21/3 15/22/3
f 15/22/4 5/21/4 11/23/4 14/24/4
f 11/23/1 8/25/1 16/26/1 14/24/1
f 8/25/2 2/27/2 13/28/2 16/26/2
f 5/29/6 2/30/6 8/25/6 11/23/6
