# Blender v3.1.2 OBJ File: 'ModelyKamenov.blend'
# www.blender.org
mtllib 4.mtl
o 4
v -0.127587 0.189752 -0.208187
v 0.082825 -0.200475 -0.027053
v 0.082825 -0.200475 -0.027053
v 0.110110 -0.143968 -0.095400
v 0.166738 0.131222 -0.135967
v 0.166738 0.131222 -0.135967
v 0.166738 0.131222 -0.135967
v 0.166738 0.131222 -0.135967
v 0.273170 0.102641 -0.133677
v 0.273170 0.102641 -0.133677
v 0.273170 0.102641 -0.133677
v 0.273170 0.102641 -0.133677
v 0.305463 0.126606 -0.087871
v 0.305463 0.126606 -0.087871
v 0.305463 0.126606 -0.087871
v -0.003639 -0.038656 0.228439
v 0.004178 -0.105012 0.207184
v 0.004178 -0.105012 0.207184
v -0.048215 -0.016730 -0.173640
v -0.048215 -0.016730 -0.173640
v 0.085612 -0.152475 0.161552
v 0.085612 -0.152475 0.161552
v 0.134822 -0.068712 0.182550
v 0.134822 -0.068712 0.182550
v 0.134822 -0.068712 0.182550
v 0.036524 -0.324132 0.073884
v 0.036524 -0.324132 0.073884
v 0.130310 -0.171142 0.130323
v 0.130310 -0.171142 0.130323
v -0.209952 0.200617 -0.117560
v 0.067926 -0.288366 0.088028
v 0.067926 -0.288366 0.088028
v 0.067926 -0.288366 0.088028
v 0.292479 0.031557 0.142973
v 0.292479 0.031557 0.142973
v 0.292479 0.031557 0.142973
v 0.116165 -0.162623 -0.058147
v 0.116165 -0.162623 -0.058147
v 0.032178 -0.139441 -0.138109
v 0.032178 -0.139441 -0.138109
v -0.134247 -0.104947 0.191682
v -0.134247 -0.104947 0.191682
v 0.084370 -0.011904 -0.143515
v 0.084370 -0.011904 -0.143515
v 0.131478 0.102545 -0.151416
v 0.131478 0.102545 -0.151416
v 0.131478 0.102545 -0.151416
v 0.170226 -0.153636 0.104223
v 0.170226 -0.153636 0.104223
v 0.170226 -0.153636 0.104223
v 0.321382 0.115611 -0.006002
v 0.321382 0.115611 -0.006002
v 0.321382 0.115611 -0.006002
v 0.321382 0.115611 -0.006002
v 0.003730 0.171814 -0.136636
v -0.209952 0.200617 -0.117560
v 0.003730 0.171814 -0.136636
v -0.202822 0.124814 -0.249429
v -0.202822 0.124814 -0.249429
v -0.083101 -0.132122 0.185723
v -0.078527 -0.077686 0.232304
v -0.078527 -0.077686 0.232304
v 0.055053 0.133174 0.134826
v -0.315461 0.166422 -0.089361
v -0.315461 0.166422 -0.089361
v -0.042377 0.133392 0.082235
v -0.157864 -0.042280 -0.167021
v -0.157864 -0.042280 -0.167021
v -0.157864 -0.042280 -0.167021
v -0.228732 0.035773 -0.078665
v 0.265339 0.135431 -0.132472
v 0.265339 0.135431 -0.132472
v 0.041174 0.121043 0.009863
v -0.157298 -0.061703 0.046543
v 0.197440 0.137901 0.000510
v -0.091483 -0.183459 0.060187
v -0.091483 -0.183459 0.060187
v -0.141530 -0.105255 0.102616
v -0.141530 -0.105255 0.102616
v -0.141530 -0.105255 0.102616
v -0.179319 0.121457 0.087726
v -0.179319 0.121457 0.087726
v -0.011923 0.167704 -0.062043
v -0.011923 0.167704 -0.062043
v -0.248141 0.033418 0.127492
v -0.248141 0.033418 0.127492
v -0.256560 0.054603 0.067236
v -0.256560 0.054603 0.067236
v -0.133877 0.068302 0.180195
v -0.285238 0.162287 -0.166131
v -0.285238 0.162287 -0.166131
v -0.285238 0.162287 -0.166131
v -0.285238 0.162287 -0.166131
v 0.292320 0.080086 0.129794
v 0.292320 0.080086 0.129794
v 0.075925 -0.018915 0.196824
v -0.001076 -0.269634 -0.060849
v -0.001076 -0.269634 -0.060849
v 0.175257 -0.000231 0.180231
v -0.145542 -0.087688 0.014872
v 0.031316 -0.324895 0.037593
v 0.031316 -0.324895 0.037593
v 0.031316 -0.324895 0.037593
v -0.129058 -0.026636 0.241636
v -0.161645 -0.027924 0.196329
v -0.161645 -0.027924 0.196329
v -0.161645 -0.027924 0.196329
v -0.161645 -0.027924 0.196329
v -0.200462 -0.035772 0.177158
v -0.200462 -0.035772 0.177158
v -0.258570 0.069480 -0.077605
v -0.258570 0.069480 -0.077605
v -0.298792 0.125450 0.005029
v -0.298792 0.125450 0.005029
v 0.166074 -0.013948 -0.136381
v 0.166074 -0.013948 -0.136381
v -0.174736 0.063633 0.151213
v -0.174736 0.063633 0.151213
v 0.094127 0.151877 -0.150777
v 0.094127 0.151877 -0.150777
v 0.094127 0.151877 -0.150777
v 0.040263 -0.069007 -0.141259
v 0.040263 -0.069007 -0.141259
v 0.117645 0.040854 0.163519
v -0.005139 0.005965 -0.151007
v -0.005139 0.005965 -0.151007
v 0.058319 0.083908 0.173874
v 0.012999 -0.182860 0.181916
v 0.012999 -0.182860 0.181916
v 0.012999 -0.182860 0.181916
v 0.012999 -0.182860 0.181916
v -0.048980 -0.180599 -0.123229
v -0.100441 -0.110946 -0.178485
v -0.068362 -0.196403 -0.078431
v -0.068362 -0.196403 -0.078431
v -0.068362 -0.196403 -0.078431
v -0.208667 0.024330 0.161648
v -0.208667 0.024330 0.161648
v -0.178940 0.027226 -0.198697
v -0.209158 0.028170 -0.219250
v -0.209158 0.028170 -0.219250
v -0.265989 0.105195 -0.232332
v -0.265989 0.105195 -0.232332
v -0.265989 0.105195 -0.232332
v 0.109327 0.123488 -0.071912
v 0.109327 0.123488 -0.071912
v -0.069943 0.180495 -0.155269
v -0.069943 0.180495 -0.155269
v -0.289232 0.192916 -0.059157
v -0.289232 0.192916 -0.059157
v -0.149920 0.205896 -0.178375
v -0.149920 0.205896 -0.178375
v -0.104161 0.107629 -0.203707
v -0.104161 0.107629 -0.203707
v -0.104161 0.107629 -0.203707
v 0.211080 0.142286 0.079813
v 0.211080 0.142286 0.079813
v -0.132179 0.189946 -0.090801
v -0.132179 0.189946 -0.090801
v -0.068768 0.184392 -0.058969
v -0.068768 0.184392 -0.058969
v -0.209952 0.200617 -0.117560
v 0.003730 0.171814 -0.136636
v -0.209952 0.200617 -0.117560
v 0.223536 0.087958 0.119032
v 0.187765 -0.055309 -0.000003
v 0.166049 -0.130977 0.031373
v 0.209773 -0.006938 -0.075546
v 0.121364 -0.236251 0.082024
v 0.121364 -0.236251 0.082024
v 0.105349 0.136690 0.070598
v -0.286173 0.189489 -0.106354
v -0.286173 0.189489 -0.106354
v 0.053166 -0.328447 0.049816
v 0.053166 -0.328447 0.049816
v 0.053166 -0.328447 0.049816
v -0.038661 0.160249 0.025843
v 0.286729 -0.024828 0.112880
v 0.286729 -0.024828 0.112880
v 0.286729 -0.024828 0.112880
v 0.300005 0.085109 -0.090311
v 0.300005 0.085109 -0.090311
v -0.175337 0.171149 0.018110
v 0.005652 -0.199406 -0.108295
v 0.005652 -0.199406 -0.108295
v 0.325762 0.077562 0.096208
v 0.325762 0.077562 0.096208
v 0.138383 -0.192462 0.025917
v 0.268750 0.012738 0.032755
v 0.268750 0.012738 0.032755
v -0.259256 0.131270 0.040791
v -0.259256 0.131270 0.040791
v -0.085035 0.006817 0.178537
v -0.077891 0.072481 0.179358
v -0.026421 -0.260258 0.140702
v -0.026421 -0.260258 0.140702
v -0.026421 -0.260258 0.140702
v -0.026421 -0.260258 0.140702
v -0.053562 0.116326 0.148813
v -0.089763 -0.004469 0.244276
v -0.089763 -0.004469 0.244276
v 0.130310 -0.171142 0.130323
v 0.130310 -0.171142 0.130323
v 0.003730 0.171814 -0.136636
vn 0.4367 0.8490 0.2974
vn -0.2454 0.7835 0.5709
vn -0.7275 -0.6834 0.0618
vn 0.0686 0.4569 0.8868
vn 0.4203 0.8348 0.3557
vn 0.5134 -0.7451 -0.4258
vn 0.2802 0.8865 0.3684
vn -0.8565 -0.5112 -0.0706
vn 0.1135 0.9410 0.3187
vn -0.8559 -0.5132 -0.0636
vn -0.1315 -0.3195 0.9384
vn 0.2685 0.4426 -0.8556
vn 0.3046 0.1956 0.9322
vn 0.3916 0.9018 0.1830
vn 0.1389 0.4063 0.9031
vn -0.1129 -0.0001 0.9936
vn -0.1093 0.9933 -0.0361
vn 0.4901 -0.4717 0.7330
vn -0.7736 -0.6276 -0.0868
vn 0.1721 0.9815 -0.0839
vn 0.7368 -0.5335 -0.4154
vn 0.2701 -0.5561 0.7860
vn 0.2506 0.2020 -0.9468
vn -0.0065 0.9934 0.1141
vn 0.2304 0.6138 0.7551
vn -0.8427 -0.5330 -0.0760
vn -0.7614 -0.5929 -0.2623
vn 0.0779 -0.4713 -0.8785
vn 0.6737 -0.6989 -0.2399
vn -0.7489 -0.6625 -0.0155
vn 0.8107 -0.5709 -0.1294
vn -0.0268 0.7175 0.6960
vn -0.7592 -0.6415 -0.1103
vn 0.3375 -0.3679 -0.8665
vn -0.8408 -0.5396 -0.0438
vn -0.7282 -0.6829 -0.0577
vn -0.7923 -0.6017 -0.1009
vn 0.4667 -0.0039 -0.8844
vn 0.1729 -0.2903 -0.9412
vn 0.0079 -0.0456 -0.9989
vn -0.1674 -0.2839 -0.9441
vn 0.5461 -0.2046 -0.8123
vn 0.5332 -0.2838 -0.7970
vn 0.0391 -0.4045 -0.9137
vn 0.4298 0.0735 -0.8999
vn 0.7335 -0.4291 -0.5272
vn 0.6815 0.1554 -0.7152
vn 0.7927 -0.4383 -0.4238
vn 0.1269 -0.1788 -0.9757
vn 0.5293 -0.2517 -0.8102
vn 0.5068 0.0475 -0.8607
vn 0.4960 -0.7687 -0.4039
vn 0.0228 -0.1579 0.9872
vn -0.2419 -0.6190 0.7472
vn 0.0155 -0.6508 0.7591
vn -0.1681 -0.0248 -0.9855
vn 0.0653 -0.0897 -0.9938
vn 0.0642 -0.0950 -0.9934
vn -0.1799 -0.1236 -0.9759
vn 0.3575 -0.2514 0.8994
vn 0.0534 -0.1634 0.9851
vn 0.0848 -0.0768 -0.9934
vn 0.0840 -0.1030 -0.9911
vn 0.3819 -0.2100 0.9000
vn 0.4008 0.0008 -0.9162
vn 0.0222 0.0028 -0.9997
vn 0.4948 -0.4196 0.7610
vn -0.1904 0.8924 -0.4091
vn 0.4071 0.1290 -0.9042
vn 0.0788 0.9835 0.1631
vn 0.5447 -0.6750 0.4976
vn 0.6152 -0.5225 0.5904
vn 0.0335 0.0447 -0.9984
vn 0.8335 -0.0775 -0.5471
vn 0.3802 -0.4654 0.7993
vn 0.4765 -0.4805 0.7363
vn 0.8286 -0.5105 -0.2297
vn -0.8106 -0.5760 0.1056
vn -0.0498 0.9703 0.2368
vn -0.9550 -0.2959 -0.0225
vn -0.5173 0.7296 -0.4473
vn 0.8907 -0.2814 0.3571
vn -0.2935 0.7312 -0.6158
vn 0.8568 -0.3871 -0.3406
vn -0.1147 0.8586 -0.4997
vn -0.3797 0.6431 -0.6650
vn 0.9763 -0.1382 0.1667
vn 0.0196 -0.2540 0.9670
vn -0.4984 -0.2278 0.8365
vn -0.6664 0.6693 0.3284
vn -0.6357 0.1104 0.7640
vn 0.2690 0.9557 0.1196
vn -0.0851 -0.3636 0.9277
vn -0.6487 -0.7532 0.1089
vn -0.6925 0.6525 -0.3078
vn 0.7277 -0.6420 -0.2414
vn 0.6609 -0.6309 0.4064
vn 0.4012 -0.4098 0.8192
vn -0.5939 -0.6694 0.4462
vn -0.8093 -0.5102 -0.2911
vn 0.1774 -0.0715 0.9815
vn 0.4087 -0.2344 0.8821
vn -0.4019 -0.1969 0.8943
vn -0.8477 -0.5223 -0.0926
vn -0.3845 0.9140 0.1293
vn -0.1557 0.9844 -0.0816
vn -0.4631 0.1617 0.8714
vn -0.6720 0.2203 0.7071
vn -0.6499 0.7538 -0.0969
vn 0.2775 -0.5540 0.7849
vn 0.0045 0.6213 0.7835
vn 0.1937 -0.2785 0.9407
vn 0.1758 0.1132 0.9779
vn 0.0160 -0.0142 0.9998
vn -0.2274 0.7969 0.5597
vn -0.8325 0.4392 0.3377
vn -0.5751 0.2940 0.7634
vn -0.4814 0.8148 0.3230
vn -0.2009 0.4097 0.8898
vn -0.7473 -0.6588 -0.0865
vn 0.7477 0.2018 -0.6327
vn -0.7698 -0.6358 -0.0558
vn -0.0288 0.9865 -0.1613
vn -0.9247 -0.3793 -0.0320
vn 0.6666 -0.7260 -0.1691
vn -0.4888 -0.7345 -0.4706
vn -0.7643 -0.6425 -0.0554
vn 0.1811 0.9787 0.0962
vn 0.2049 0.9329 0.2963
vn 0.0979 0.9923 0.0752
vn 0.3537 0.9075 -0.2265
vn 0.3489 0.9289 0.1244
vn -0.7655 -0.6306 -0.1278
vn -0.7811 -0.6152 -0.1071
vn 0.9093 -0.3758 -0.1788
vn -0.9252 -0.3779 -0.0334
vn 0.3476 0.8827 0.3161
vn 0.2488 0.9256 0.2852
vn -0.8346 -0.5234 -0.1719
vn -0.1108 0.9919 -0.0627
vn 0.2793 0.9593 -0.0422
vn 0.1078 0.9933 -0.0415
vn 0.7030 0.1885 0.6858
vn -0.0327 0.9757 -0.2168
vn 0.9038 -0.3913 -0.1735
vn -0.7561 -0.6543 -0.0132
vn -0.0619 0.5748 0.8159
vn -0.8089 -0.5840 0.0682
vn 0.5600 -0.0433 0.8274
vn 0.4671 0.7860 0.4051
vn -0.0384 0.9767 -0.2110
vn 0.4536 0.8865 0.0913
vn -0.5840 -0.6525 -0.4829
vn 0.2292 0.2558 0.9392
vn 0.0327 -0.5617 -0.8267
vn 0.0518 0.9786 0.1993
vn 0.4616 -0.2437 0.8530
vn 0.4143 -0.4310 -0.8016
vn -0.0539 0.9985 0.0124
vn 0.0008 0.9854 0.1704
vn -0.0664 0.0897 -0.9938
vn 0.0670 0.9784 0.1954
vn -0.0192 0.9990 0.0397
vn -0.0824 0.0967 -0.9919
vn 0.3748 -0.5850 0.7192
vn 0.2378 0.6038 0.7609
vn 0.6762 -0.5970 -0.4316
vn -0.3838 0.8433 0.3763
vn 0.3798 -0.5411 -0.7503
vn 0.4605 -0.7615 -0.4562
vn 0.8639 -0.3572 -0.3551
vn 0.4904 -0.5196 -0.6996
vn -0.1206 0.9663 0.2274
vn 0.1557 -0.8386 -0.5220
vn 0.0638 0.4515 0.8900
vn 0.6312 -0.6789 -0.3751
vn 0.7416 -0.4701 -0.4786
vn -0.0478 0.8143 0.5785
vn -0.5825 0.6021 0.5460
vn 0.6443 -0.4980 -0.5804
vn -0.2289 0.7985 0.5568
vn -0.4615 0.2747 0.8435
vn -0.0750 0.9689 0.2358
vn -0.1719 -0.3934 0.9032
vn -0.0156 0.5774 0.8163
vn 0.6798 -0.6913 -0.2446
vn -0.4989 0.6225 0.6030
vn -0.4618 0.6389 0.6153
vn -0.0314 0.5830 0.8119
vn 0.8682 -0.4830 -0.1136
vn 0.6014 -0.5388 -0.5900
vn 0.0540 0.7803 0.6230
vn 0.8575 -0.3906 -0.3350
vn -0.4561 0.5743 0.6799
vn 0.1244 -0.1415 0.9821
usemtl None
s off
f 157//1 187//1 53//1
f 82//2 89//2 199//2
f 80//3 42//3 109//3
f 99//4 95//4 124//4
f 94//5 187//5 157//5
f 2//6 188//6 170//6
f 160//7 73//7 84//7
f 64//8 112//8 113//8
f 66//9 160//9 183//9
f 80//10 100//10 76//10
f 17//11 60//11 129//11
f 148//12 57//12 155//12
f 127//13 124//13 165//13
f 200//14 16//14 193//14
f 124//15 194//15 96//15
f 194//16 193//16 96//16
f 75//17 73//17 156//17
f 22//18 49//18 23//18
f 140//19 67//19 111//19
f 75//20 156//20 52//20
f 54//21 180//21 190//21
f 195//22 27//22 130//22
f 7//23 45//23 119//23
f 6//24 146//24 14//24
f 127//25 156//25 63//25
f 68//26 134//26 100//26
f 136//27 69//27 133//27
f 132//28 39//28 184//28
f 168//29 182//29 190//29
f 68//30 70//30 112//30
f 166//31 4//31 168//31
f 165//32 124//32 95//32
f 97//33 103//33 77//33
f 58//34 154//34 139//34
f 113//35 112//35 88//35
f 77//36 135//36 97//36
f 144//37 140//37 111//37
f 153//38 125//38 20//38
f 19//39 122//39 132//39
f 122//40 43//40 39//40
f 58//41 141//41 143//41
f 139//42 69//42 141//42
f 58//43 139//43 141//43
f 139//44 19//44 69//44
f 59//45 1//45 155//45
f 166//46 180//46 167//46
f 1//47 148//47 155//47
f 2//48 170//48 176//48
f 139//49 154//49 19//49
f 133//50 19//50 132//50
f 57//51 126//51 155//51
f 2//52 38//52 188//52
f 104//53 62//53 201//53
f 62//54 41//54 60//54
f 60//55 17//55 62//55
f 132//56 122//56 39//56
f 44//57 123//57 125//57
f 47//58 44//58 125//58
f 57//59 120//59 46//59
f 21//60 18//60 128//60
f 124//61 127//61 194//61
f 44//62 116//62 40//62
f 47//63 116//63 44//63
f 96//64 18//64 21//64
f 45//65 7//65 115//65
f 9//66 115//66 7//66
f 131//67 33//67 169//67
f 30//68 90//68 173//68
f 20//69 125//69 123//69
f 56//70 159//70 152//70
f 27//71 174//71 31//71
f 50//72 28//72 170//72
f 9//73 7//73 72//73
f 181//74 12//74 15//74
f 99//75 179//75 34//75
f 24//76 48//76 178//76
f 15//77 51//77 189//77
f 198//78 79//78 77//78
f 13//79 71//79 8//79
f 91//80 142//80 112//80
f 162//81 151//81 59//81
f 35//82 180//82 186//82
f 151//83 1//83 59//83
f 166//84 167//84 38//84
f 59//85 92//85 162//85
f 58//86 143//86 93//86
f 15//87 189//87 181//87
f 21//88 25//88 96//88
f 41//89 62//89 108//89
f 87//90 85//90 81//90
f 110//91 138//91 85//91
f 147//92 152//92 159//92
f 41//93 197//93 60//93
f 196//94 102//94 26//94
f 65//95 173//95 90//95
f 180//96 50//96 167//96
f 170//97 32//97 176//97
f 29//98 21//98 128//98
f 104//99 108//99 62//99
f 64//100 91//100 112//100
f 96//101 25//101 99//101
f 16//102 18//102 96//102
f 109//103 42//103 105//103
f 76//104 100//104 134//104
f 107//105 200//105 193//105
f 172//106 149//106 164//106
f 110//107 106//107 138//107
f 114//108 87//108 192//108
f 150//109 173//109 65//109
f 130//110 27//110 31//110
f 199//111 127//111 63//111
f 61//112 18//112 16//112
f 107//113 193//113 89//113
f 194//114 89//114 193//114
f 149//115 191//115 183//115
f 114//116 150//116 65//116
f 107//117 89//117 117//117
f 104//118 201//118 108//118
f 137//119 107//119 117//119
f 112//120 70//120 74//120
f 10//121 71//121 13//121
f 70//122 68//122 74//122
f 146//123 75//123 14//123
f 100//124 74//124 68//124
f 37//125 3//125 98//125
f 133//126 132//126 136//126
f 112//127 74//127 88//127
f 14//128 75//128 52//128
f 5//129 121//129 145//129
f 163//130 147//130 83//130
f 151//131 148//131 1//131
f 146//132 55//132 84//132
f 88//133 74//133 109//133
f 86//134 88//134 109//134
f 186//135 180//135 54//135
f 100//136 80//136 74//136
f 73//137 146//137 84//137
f 204//138 145//138 121//138
f 109//139 74//139 80//139
f 75//140 146//140 73//140
f 147//141 161//141 83//141
f 161//142 147//142 159//142
f 187//143 94//143 36//143
f 171//144 156//144 73//144
f 50//145 188//145 167//145
f 198//146 77//146 103//146
f 95//147 156//147 165//147
f 197//148 41//148 78//148
f 203//149 49//149 22//149
f 73//150 177//150 66//150
f 66//151 171//151 73//151
f 177//152 73//152 160//152
f 132//153 98//153 136//153
f 34//154 95//154 99//154
f 98//155 132//155 184//155
f 149//156 183//156 164//156
f 25//157 179//157 99//157
f 116//158 4//158 40//158
f 63//159 156//159 171//159
f 158//160 183//160 160//160
f 46//161 126//161 57//161
f 158//162 164//162 183//162
f 171//163 66//163 63//163
f 19//164 133//164 69//164
f 202//165 131//165 169//165
f 156//166 127//166 165//166
f 190//167 180//167 166//167
f 160//168 66//168 177//168
f 4//169 185//169 40//169
f 4//170 38//170 185//170
f 188//171 38//171 167//171
f 98//172 184//172 37//172
f 199//173 63//173 66//173
f 101//174 98//174 175//174
f 124//175 96//175 99//175
f 168//176 116//176 182//176
f 168//177 4//177 116//177
f 66//178 183//178 82//178
f 114//179 192//179 150//179
f 3//180 175//180 98//180
f 183//181 191//181 82//181
f 192//182 87//182 81//182
f 82//183 199//183 66//183
f 197//184 129//184 60//184
f 127//185 199//185 194//185
f 190//186 166//186 168//186
f 117//187 89//187 82//187
f 85//188 118//188 81//188
f 89//189 194//189 199//189
f 188//190 50//190 170//190
f 116//191 11//191 182//191
f 96//192 193//192 16//192
f 4//193 166//193 38//193
f 118//194 85//194 138//194
f 200//195 61//195 16//195
