# Blender v3.1.2 OBJ File: 'ModelyKamenov.blend'
# www.blender.org
mtllib 8.mtl
o 8
v 0.164238 -0.065726 0.070231
v 0.164238 -0.065726 0.070231
v -0.060513 0.108710 -0.041940
v -0.060513 0.108710 -0.041940
v -0.060513 0.108710 -0.041940
v -0.060513 0.108710 -0.041940
v -0.060513 0.108710 -0.041940
v -0.060513 0.108710 -0.041940
v -0.045409 0.123119 -0.077525
v -0.045409 0.123119 -0.077525
v -0.045409 0.123119 -0.077525
v -0.045409 0.123119 -0.077525
v 0.134155 -0.036105 0.137927
v -0.001608 -0.067787 0.191306
v -0.001608 -0.067787 0.191306
v 0.147060 0.086787 0.047361
v 0.147060 0.086787 0.047361
v -0.166516 0.002632 0.005034
v -0.160493 -0.090504 0.058860
v -0.076449 0.103836 -0.061609
v -0.076449 0.103836 -0.061609
v -0.076449 0.103836 -0.061609
v -0.091779 0.058462 0.007928
v -0.091779 0.058462 0.007928
v -0.091779 0.058462 0.007928
v -0.091779 0.058462 0.007928
v -0.091779 0.058462 0.007928
v 0.068815 0.053599 0.100410
v 0.068815 0.053599 0.100410
v 0.078422 -0.093496 0.159566
v 0.078422 -0.093496 0.159566
v 0.078422 -0.093496 0.159566
v -0.052913 0.017005 0.102615
v -0.142073 0.063012 -0.111636
v -0.140708 0.052052 -0.057741
v -0.140708 0.052052 -0.057741
v -0.173597 -0.058367 0.039368
v -0.173597 -0.058367 0.039368
v 0.201137 0.030173 0.015615
v 0.201137 0.030173 0.015615
v 0.129000 0.120079 -0.019636
v 0.129000 0.120079 -0.019636
v 0.129000 0.120079 -0.019636
v -0.150790 -0.016074 0.050969
v -0.150790 -0.016074 0.050969
v 0.174562 -0.050724 0.025673
v 0.174562 -0.050724 0.025673
v 0.180742 0.048437 0.044412
v 0.180742 0.048437 0.044412
v 0.026111 0.143977 -0.044776
v 0.026111 0.143977 -0.044776
v 0.026111 0.143977 -0.044776
v 0.026111 0.143977 -0.044776
v 0.026111 0.143977 -0.044776
v 0.065391 0.123103 0.012818
v 0.065391 0.123103 0.012818
v -0.096049 -0.040486 0.134700
v 0.014593 0.076758 0.063579
v -0.070354 -0.068532 0.168410
v -0.070354 -0.068532 0.168410
v 0.134155 -0.036105 0.137927
v 0.134155 -0.036105 0.137927
v 0.134155 -0.036105 0.137927
v 0.115627 -0.065174 0.150526
v 0.115627 -0.065174 0.150526
v 0.115627 -0.065174 0.150526
v -0.187232 0.002737 -0.070842
v -0.198460 -0.025102 -0.045772
v -0.072950 0.104368 -0.059907
v -0.072950 0.104368 -0.059907
v -0.072950 0.104368 -0.059907
v -0.072950 0.104368 -0.059907
v -0.015676 -0.123024 0.152631
v -0.015676 -0.123024 0.152631
v -0.015676 -0.123024 0.152631
v -0.122660 -0.002067 -0.182425
v -0.122660 -0.002067 -0.182425
v 0.163354 0.025036 0.089156
v 0.163354 0.025036 0.089156
v 0.163354 0.025036 0.089156
v 0.169796 -0.025288 0.094937
v 0.169796 -0.025288 0.094937
v 0.169796 -0.025288 0.094937
v 0.169796 -0.025288 0.094937
v -0.056852 -0.063234 -0.104239
v 0.047170 -0.045797 -0.058132
v -0.189531 -0.041700 -0.087920
v -0.189531 -0.041700 -0.087920
v -0.189531 -0.041700 -0.087920
v -0.069469 0.106895 -0.058316
v -0.069469 0.106895 -0.058316
v -0.069469 0.106895 -0.058316
v -0.069469 0.106895 -0.058316
v -0.039328 -0.116949 0.081070
v -0.039328 -0.116949 0.081070
v -0.039328 -0.116949 0.081070
v -0.039328 -0.116949 0.081070
v -0.192597 -0.064175 -0.023453
v -0.192597 -0.064175 -0.023453
v -0.053315 -0.031983 -0.143084
v 0.133241 0.081571 -0.110920
v 0.172074 -0.015652 -0.036997
v 0.172074 -0.015652 -0.036997
v 0.172074 -0.015652 -0.036997
v 0.089918 0.063863 -0.129795
v 0.089918 0.063863 -0.129795
v 0.009977 -0.113138 0.008374
v 0.143631 0.005891 -0.078422
v -0.104650 0.060661 -0.170503
v -0.145850 0.014617 -0.169314
v -0.145850 0.014617 -0.169314
v -0.145850 0.014617 -0.169314
v -0.047276 -0.013270 -0.127326
v 0.027422 0.011595 -0.135762
v 0.112019 -0.080492 0.010123
v 0.112019 -0.080492 0.010123
v -0.120599 -0.051077 -0.151730
v -0.120599 -0.051077 -0.151730
v -0.146331 -0.040731 -0.150477
v -0.146331 -0.040731 -0.150477
v -0.146331 -0.040731 -0.150477
v -0.146331 -0.040731 -0.150477
v -0.146331 -0.040731 -0.150477
v -0.107247 -0.114336 -0.008343
v -0.018280 0.018732 -0.158559
v -0.054354 0.109290 -0.131276
v 0.191947 0.078452 -0.010968
v 0.191947 0.078452 -0.010968
v -0.129110 -0.114040 -0.034441
v -0.129110 -0.114040 -0.034441
v -0.129110 -0.114040 -0.034441
v 0.195515 0.058496 -0.048919
v 0.195515 0.058496 -0.048919
v 0.195515 0.058496 -0.048919
v 0.155894 -0.048511 -0.006266
v 0.155894 -0.048511 -0.006266
v -0.146106 -0.069258 -0.042749
v 0.147116 0.103544 -0.082656
v 0.007410 -0.112118 0.065521
v 0.007410 -0.112118 0.065521
v -0.103777 -0.080833 0.133901
v -0.103777 -0.080833 0.133901
v -0.103777 -0.080833 0.133901
v -0.126911 -0.055426 0.066500
v -0.033531 -0.035542 -0.085362
v -0.139230 -0.102366 -0.002529
v -0.139230 -0.102366 -0.002529
v -0.139230 -0.102366 -0.002529
v -0.075854 -0.093089 -0.072579
v -0.031959 -0.127851 0.125399
v -0.031959 -0.127851 0.125399
v -0.031959 -0.127851 0.125399
v -0.055390 -0.043301 0.167236
v 0.168592 0.101255 -0.050736
v 0.168592 0.101255 -0.050736
v 0.168592 0.101255 -0.050736
v -0.065003 -0.112732 0.147048
v -0.065003 -0.112732 0.147048
v 0.143619 -0.022452 -0.052261
v -0.118088 -0.087074 0.086969
v -0.118088 -0.087074 0.086969
v -0.122460 -0.107819 0.033066
v -0.122460 -0.107819 0.033066
v -0.122460 -0.107819 0.033066
v -0.107819 0.094242 -0.123742
v -0.107819 0.094242 -0.123742
v -0.107819 0.094242 -0.123742
v -0.107819 0.094242 -0.123742
v -0.056481 -0.121977 0.059673
v 0.180009 0.064008 -0.082901
v 0.180009 0.064008 -0.082901
v 0.180009 0.064008 -0.082901
v -0.081829 0.026080 -0.182654
v -0.081829 0.026080 -0.182654
v 0.123386 -0.064443 0.031217
v 0.123386 -0.064443 0.031217
v 0.123598 0.056639 0.088301
v 0.123598 0.056639 0.088301
v -0.001104 -0.129732 0.113449
v -0.001104 -0.129732 0.113449
v 0.016279 -0.093583 0.187344
v 0.016279 -0.093583 0.187344
v -0.097109 -0.125764 0.089355
v -0.097109 -0.125764 0.089355
v -0.097109 -0.125764 0.089355
v 0.010192 0.039483 0.107184
v -0.163923 -0.083021 -0.087632
v -0.163923 -0.083021 -0.087632
v 0.023983 -0.010909 0.164904
v 0.023983 -0.010909 0.164904
v -0.026066 0.124154 -0.109083
v -0.026066 0.124154 -0.109083
v -0.026066 0.124154 -0.109083
v -0.026066 0.124154 -0.109083
v 0.088730 0.143608 -0.043674
v 0.088730 0.143608 -0.043674
v 0.088730 0.143608 -0.043674
v 0.102728 -0.095964 0.067715
v 0.102728 -0.095964 0.067715
v 0.102728 -0.095964 0.067715
v 0.142062 -0.082869 0.098635
v 0.142062 -0.082869 0.098635
v 0.091525 0.142871 -0.077481
v 0.091525 0.142871 -0.077481
v 0.091525 0.142871 -0.077481
v 0.066404 0.131105 -0.101110
v 0.021259 0.056463 -0.145234
v 0.021259 0.056463 -0.145234
v 0.066217 -0.095579 0.086396
v 0.066217 -0.095579 0.086396
v 0.066217 -0.095579 0.086396
v 0.091896 -0.023839 0.156796
v 0.091896 -0.023839 0.156796
v 0.091896 -0.023839 0.156796
v -0.002338 -0.069842 -0.051558
v -0.033219 -0.091082 -0.060084
v -0.040825 -0.115034 -0.002405
v 0.023954 -0.007335 -0.115710
v -0.045409 0.123119 -0.077525
v -0.045409 0.123119 -0.077525
vn 0.3717 0.6356 -0.6766
vn -0.0895 0.7785 0.6212
vn 0.8339 0.5169 -0.1934
vn -0.3260 -0.7395 -0.5889
vn -0.2922 0.6847 0.6676
vn 0.1495 -0.9200 -0.3623
vn 0.0174 -0.9518 -0.3063
vn 0.1762 0.3481 0.9207
vn 0.3950 -0.3766 -0.8379
vn -0.6647 -0.6868 0.2940
vn 0.8878 0.1631 0.4303
vn -0.9537 0.1496 -0.2610
vn -0.9129 -0.2617 0.3132
vn 0.2252 -0.8355 0.5012
vn -0.2786 -0.4451 0.8511
vn -0.8086 0.1436 0.5705
vn -0.2717 0.8305 0.4863
vn 0.2366 0.8940 0.3805
vn 0.1515 -0.9368 0.3154
vn -0.3320 0.6372 0.6955
vn 0.6118 -0.6797 -0.4047
vn -0.0947 0.9704 -0.2223
vn -0.3065 0.7386 0.6004
vn 0.1678 -0.9585 -0.2304
vn 0.3041 -0.9521 0.0306
vn 0.2045 -0.6640 -0.7193
vn -0.3191 -0.7577 -0.5692
vn 0.2229 -0.9383 -0.2643
vn -0.2368 -0.9138 -0.3298
vn 0.8208 -0.4793 -0.3109
vn 0.5332 0.8432 -0.0680
vn -0.4259 0.5803 0.6941
vn -0.5658 0.7472 0.3486
vn -0.5049 0.6952 0.5116
vn -0.5090 0.6779 0.5304
vn 0.1999 0.4428 -0.8741
vn -0.4504 -0.4323 0.7812
vn -0.9692 -0.2145 -0.1209
vn 0.4038 0.1412 0.9039
vn 0.5943 -0.7675 -0.2404
vn 0.9475 -0.2964 0.1198
vn 0.8272 -0.3713 0.4217
vn 0.2302 -0.8191 -0.5255
vn -0.1634 0.2293 -0.9595
vn 0.8077 -0.2932 0.5115
vn 0.1528 -0.8513 -0.5019
vn 0.3691 0.6136 -0.6980
vn 0.7778 0.3940 0.4897
vn 0.4543 -0.1817 -0.8721
vn 0.0835 0.7790 0.6215
vn 0.1733 -0.8729 -0.4560
vn 0.0576 -0.9937 -0.0966
vn 0.9828 0.1845 -0.0046
vn -0.5649 0.3694 0.7379
vn -0.9330 -0.1981 0.3005
vn -0.1093 0.7610 0.6395
vn 0.2565 0.8697 0.4217
vn -0.5773 -0.4109 0.7056
vn -0.8497 0.4300 -0.3052
vn 0.1503 -0.9883 0.0244
vn 0.6884 0.5702 0.4483
vn 0.8292 -0.4916 0.2661
vn 0.1730 0.4755 -0.8626
vn -0.5032 -0.5638 -0.6549
vn 0.2836 -0.4537 -0.8448
vn 0.4714 -0.8170 -0.3322
vn 0.1862 -0.7674 -0.6135
vn 0.2079 0.6155 0.7602
vn -0.2494 -0.5215 -0.8160
vn -0.4162 0.7577 0.5026
vn 0.1870 -0.5980 -0.7793
vn -0.8404 0.3366 0.4248
vn -0.7671 -0.3843 0.5137
vn -0.1419 -0.9665 -0.2141
vn 0.5357 -0.7650 -0.3575
vn 0.2819 -0.9028 -0.3248
vn 0.3479 -0.8983 -0.2683
vn 0.4861 -0.5928 -0.6421
vn -0.0188 -0.9374 -0.3478
vn -0.3608 0.1447 0.9214
vn 0.6552 0.5344 0.5341
vn -0.1691 0.4766 0.8627
vn 0.2753 -0.3970 -0.8756
vn 0.4262 -0.1305 -0.8952
vn 0.3506 -0.0369 -0.9358
vn 0.0435 -0.9386 0.3422
vn -0.7388 0.6565 0.1522
vn -0.6847 0.5798 -0.4416
vn 0.2902 -0.7583 -0.5837
vn -0.8705 -0.2519 0.4228
vn -0.3100 0.2268 0.9233
vn 0.5276 0.8328 0.1677
vn -0.2033 -0.5263 0.8256
vn -0.3870 0.7693 0.5084
vn -0.2964 -0.5996 -0.7433
vn 0.0061 -0.9853 0.1710
vn 0.0939 -0.9355 -0.3405
vn 0.0063 0.9998 -0.0213
vn -0.3472 -0.9376 0.0200
vn -0.9575 0.0206 0.2877
vn 0.4352 -0.3368 -0.8350
vn -0.7348 0.1275 0.6662
vn 0.3248 0.9336 -0.1516
vn 0.1532 0.4326 -0.8885
vn -0.4631 0.8723 0.1566
vn -0.6659 0.5839 -0.4644
vn -0.6093 0.7702 0.1887
vn -0.2510 0.8326 0.4938
vn 0.1687 -0.7311 -0.6611
vn 0.4321 0.1124 0.8948
vn 0.3852 0.5054 0.7721
vn -0.7620 -0.4691 0.4464
vn 0.3413 -0.7122 -0.6134
vn 0.4367 -0.8983 -0.0473
vn 0.4459 0.5794 0.6822
vn 0.2420 -0.0082 0.9702
vn 0.7373 0.1695 0.6539
vn -0.4863 -0.8738 0.0004
vn -0.3184 0.8203 0.4751
vn 0.6188 -0.4376 -0.6524
vn 0.8529 0.3669 0.3714
vn -0.2960 0.7662 -0.5703
vn -0.2092 -0.9224 0.3248
vn 0.2495 -0.7467 -0.6166
vn -0.3764 0.9262 0.0199
vn 0.1387 0.6096 0.7805
vn 0.5586 0.6335 -0.5353
vn 0.0922 -0.8104 -0.5785
vn 0.8922 -0.1119 -0.4375
vn -0.3211 0.8209 0.4723
vn -0.0235 -0.9889 0.1470
vn 0.5922 -0.8022 -0.0759
vn 0.1565 -0.7851 -0.5993
vn 0.2336 -0.1700 -0.9574
vn -0.0560 -0.8780 -0.4754
vn 0.5047 0.8196 0.2712
vn 0.9182 -0.3291 -0.2206
vn 0.8358 -0.3342 -0.4356
vn 0.9185 -0.3263 -0.2232
vn -0.1004 0.7375 0.6678
vn 0.9450 -0.0306 -0.3258
vn 0.7920 -0.6033 -0.0935
vn 0.0929 0.7817 0.6167
vn -0.0005 0.9401 0.3410
vn 0.2840 -0.7486 -0.5991
vn -0.0322 0.9079 -0.4179
vn 0.1101 -0.9608 -0.2546
vn 0.8152 0.5009 -0.2907
vn 0.2498 -0.5064 -0.8253
vn 0.2675 -0.7410 -0.6159
vn 0.5791 0.8147 0.0301
vn -0.8716 0.3133 0.3770
vn 0.8225 0.1761 -0.5408
vn 0.4546 -0.7175 -0.5278
vn 0.2854 -0.7173 -0.6357
vn -0.8172 0.5312 0.2238
vn -0.6718 0.1642 0.7223
vn -0.7386 0.6430 0.2025
vn -0.9142 -0.3753 -0.1526
vn -0.4969 0.8572 0.1355
vn 0.1409 -0.9830 0.1181
vn -0.3648 -0.7979 0.4799
vn -0.3012 -0.9224 0.2419
vn -0.6305 0.7574 0.1700
vn -0.6216 0.7116 0.3273
vn 0.5168 -0.7647 -0.3850
vn -0.4426 0.0459 0.8955
vn 0.4900 -0.8618 -0.1310
vn -0.6437 0.7150 0.2728
vn -0.2924 0.9563 -0.0001
vn -0.1504 -0.9776 -0.1473
vn -0.5690 0.7435 0.3514
vn -0.5712 -0.8198 -0.0394
vn 0.9473 -0.2515 0.1985
vn -0.6070 -0.2513 -0.7539
vn -0.9136 0.1862 -0.3615
vn -0.5240 -0.2336 0.8190
vn -0.5375 0.3472 0.7685
vn -0.5400 0.6986 0.4694
vn -0.8075 -0.1837 -0.5605
vn -0.7292 -0.4555 -0.5106
vn -0.2909 0.9371 -0.1927
vn -0.2273 -0.9264 0.3001
vn 0.2751 -0.8308 0.4839
vn 0.8550 0.2008 0.4782
vn 0.8267 -0.5623 -0.0177
vn 0.7653 -0.3333 0.5506
vn 0.2805 -0.4139 -0.8660
vn 0.4681 0.4035 0.7861
vn 0.1554 -0.9336 0.3229
vn -0.3432 0.9219 -0.1801
vn 0.1425 0.4384 -0.8874
vn 0.2311 0.4547 -0.8601
vn -0.3228 0.2654 -0.9085
vn 0.2717 -0.9267 0.2597
vn 0.3595 -0.0324 0.9326
vn 0.4716 -0.3631 -0.8036
vn -0.0164 0.8403 -0.5419
vn 0.1014 -0.8191 -0.5647
vn 0.2293 -0.9520 -0.2028
usemtl None
s off
f 206//1 138//1 101//1
f 58//2 29//2 55//2
f 134//3 156//3 128//3
f 119//4 117//4 188//4
f 33//5 190//5 186//5
f 217//6 149//6 216//6
f 217//7 124//7 149//7
f 189//8 15//8 214//8
f 108//9 114//9 106//9
f 161//10 158//10 141//10
f 81//11 49//11 78//11
f 88//12 68//12 67//12
f 143//13 45//13 160//13
f 75//14 32//14 181//14
f 15//15 60//15 157//15
f 57//16 45//16 143//16
f 58//17 55//17 54//17
f 16//18 41//18 56//18
f 199//19 209//19 139//19
f 190//20 33//20 57//20
f 102//21 47//21 135//21
f 205//22 194//22 50//22
f 58//23 33//23 186//23
f 199//24 139//24 116//24
f 116//25 139//25 107//25
f 108//26 159//26 86//26
f 137//27 148//27 99//27
f 47//28 1//28 175//28
f 89//29 137//29 99//29
f 145//30 85//30 100//30
f 197//31 42//31 138//31
f 35//32 72//32 21//32
f 35//33 23//33 72//33
f 33//34 26//34 45//34
f 33//35 45//35 57//35
f 101//36 105//36 206//36
f 182//37 15//37 74//37
f 68//38 88//38 98//38
f 31//39 15//39 182//39
f 215//40 217//40 216//40
f 2//41 46//41 40//41
f 2//42 84//42 202//42
f 159//43 136//43 86//43
f 109//44 173//44 77//44
f 66//45 202//45 62//45
f 113//46 218//46 145//46
f 138//47 206//47 203//47
f 5//48 191//48 11//48
f 105//49 101//49 172//49
f 178//50 16//50 56//50
f 85//51 131//51 118//51
f 169//52 217//52 107//52
f 128//53 39//53 134//53
f 59//54 153//54 57//54
f 19//55 37//55 99//55
f 58//56 186//56 29//56
f 196//57 56//57 41//57
f 142//58 157//58 60//58
f 111//59 67//59 34//59
f 169//60 107//60 139//60
f 49//61 127//61 17//61
f 125//62 113//62 100//62
f 208//63 173//63 126//63
f 144//64 161//64 44//64
f 100//65 76//65 125//65
f 135//66 47//66 115//66
f 114//67 113//67 125//67
f 214//68 28//68 189//68
f 123//69 76//69 118//69
f 8//70 26//70 33//70
f 86//71 215//71 145//71
f 38//72 45//72 18//72
f 158//73 161//73 185//73
f 180//74 150//74 94//74
f 175//75 201//75 200//75
f 175//76 1//76 201//76
f 180//77 140//77 211//77
f 108//78 103//78 159//78
f 180//79 94//79 140//79
f 144//80 44//80 19//80
f 17//81 78//81 49//81
f 153//82 14//82 190//82
f 145//83 216//83 149//83
f 125//84 207//84 114//84
f 207//85 125//85 174//85
f 66//86 198//86 202//86
f 34//87 67//87 36//87
f 111//88 34//88 166//88
f 85//89 118//89 100//89
f 137//90 187//90 129//90
f 153//91 59//91 14//91
f 43//92 127//92 154//92
f 15//93 157//93 74//93
f 8//94 33//94 58//94
f 85//95 149//95 131//95
f 75//96 152//96 179//96
f 164//97 97//97 183//97
f 52//98 195//98 204//98
f 124//99 162//99 147//99
f 68//100 98//100 38//100
f 171//101 108//101 106//101
f 57//102 143//102 59//102
f 138//103 42//103 155//103
f 208//104 206//104 105//104
f 6//105 9//105 91//105
f 109//106 112//106 168//106
f 36//107 22//107 166//107
f 12//108 70//108 25//108
f 114//109 218//109 113//109
f 13//110 212//110 65//110
f 214//111 80//111 178//111
f 89//112 187//112 137//112
f 218//113 114//113 86//113
f 32//114 179//114 210//114
f 16//115 178//115 80//115
f 30//116 64//116 213//116
f 63//117 82//117 79//117
f 148//118 185//118 19//118
f 54//119 8//119 58//119
f 103//120 108//120 171//120
f 39//121 128//121 48//121
f 109//122 168//122 126//122
f 151//123 158//123 185//123
f 116//124 107//124 86//124
f 53//125 193//125 7//125
f 214//126 178//126 28//126
f 101//127 155//127 172//127
f 86//128 145//128 218//128
f 163//129 184//129 146//129
f 190//130 57//130 153//130
f 124//131 217//131 162//131
f 210//132 66//132 32//132
f 217//133 215//133 107//133
f 106//134 114//134 207//134
f 117//135 130//135 188//135
f 127//136 43//136 17//136
f 104//137 40//137 46//137
f 170//138 132//138 104//138
f 132//139 40//139 104//139
f 190//140 29//140 186//140
f 145//141 100//141 113//141
f 85//142 145//142 149//142
f 55//143 29//143 177//143
f 196//144 51//144 56//144
f 86//145 107//145 215//145
f 203//146 206//146 192//146
f 185//147 95//147 151//147
f 155//148 133//148 172//148
f 118//149 76//149 100//149
f 108//150 86//150 114//150
f 197//151 138//151 203//151
f 68//152 38//152 18//152
f 155//153 101//153 138//153
f 136//154 159//154 103//154
f 86//155 136//155 116//155
f 67//156 68//156 18//156
f 19//157 44//157 37//157
f 18//158 36//158 67//158
f 137//159 129//159 148//159
f 71//160 10//160 167//160
f 96//161 169//161 139//161
f 96//162 162//162 169//162
f 131//163 124//163 147//163
f 166//164 34//164 36//164
f 26//165 8//165 22//165
f 90//166 24//166 20//166
f 72//167 92//167 21//167
f 4//168 69//168 165//168
f 3//169 92//169 72//169
f 22//170 8//170 166//170
f 162//171 217//171 169//171
f 18//172 26//172 36//172
f 99//173 148//173 19//173
f 40//174 84//174 2//174
f 121//175 112//175 77//175
f 67//176 111//176 88//176
f 19//177 185//177 161//177
f 161//178 144//178 19//178
f 26//179 18//179 45//179
f 120//180 87//180 110//180
f 187//181 89//181 122//181
f 220//182 126//182 168//182
f 73//183 158//183 151//183
f 47//184 175//184 115//184
f 39//185 48//185 83//185
f 199//186 116//186 176//186
f 202//187 84//187 62//187
f 125//188 76//188 174//188
f 214//189 61//189 80//189
f 198//190 66//190 210//190
f 220//191 192//191 126//191
f 206//192 208//192 126//192
f 109//193 126//193 173//193
f 77//194 112//194 109//194
f 179//195 32//195 75//195
f 15//196 31//196 214//196
f 215//197 216//197 145//197
f 206//198 126//198 192//198
f 219//199 27//199 93//199
f 131//200 149//200 124//200
